<?xml version="1.0" standalone="no"?><!DOCTYPE svg PUBLIC "-//W3C//DTD SVG 1.1//EN" "http://www.w3.org/Graphics/SVG/1.1/DTD/svg11.dtd"><svg t="1729133764568" class="icon" viewBox="0 0 1024 1024" version="1.1" xmlns="http://www.w3.org/2000/svg" p-id="9935" width="64" height="64" xmlns:xlink="http://www.w3.org/1999/xlink"><path d="M0 512.8192c0 282.112 229.0176 510.8736 511.488 510.8736 282.5216 0 511.488-228.7616 511.488-510.8736 0-282.1632-228.9664-510.9248-511.488-510.9248C229.0176 1.9456 0 230.656 0 512.8192" fill="#ED4C5C" p-id="9936"></path><path d="M567.1424 184.5248l1.28 38.9632 23.04-33.2288 39.5776 8.96-24.9344-30.0032 23.04-32.5632-37.7344 14.6944-24.9344-30.0544v38.9632l-37.7344 14.6944 38.4 9.5744z m68.4032 136.0384l11.52 38.912 12.8-38.2976 38.9632 0.6656-30.72-24.2688 11.5712-37.6832-31.3344 22.3744-31.3344-24.9344 11.52 39.5776-32 22.3744 39.0144 1.28z m-9.5744 132.1984l-29.44 26.1632 39.0144-3.1744 16.64 37.0176 8.2944-38.912 38.4-3.2256L665.6 449.536l8.2944-38.912-30.0544 25.4976-33.8944-20.4288 16.0256 37.0688z m-58.88 115.5584l-38.3488 9.5744 38.4 14.6944-0.6656 39.5776 24.32-30.0032 38.3488 14.08-23.04-32.5632 24.9344-30.0544-39.6288 8.96-23.04-32.5632-1.2288 38.2976z m-226.304-117.504l137.472 95.7952-51.8144-155.8016 136.192-99.6352H393.8304L340.7872 137.9328l-51.1488 153.2416H119.552l136.192 99.6352-51.7632 155.8016 136.8064-95.744z" fill="#FFE62E" p-id="9937"></path></svg>